<svg xmlns="http://www.w3.org/2000/svg" viewBox="0 0 500 580" width="500" height="580">
  <defs>
    <radialGradient id="bgGrad" cx="50%" cy="48%" r="72%">
      <stop offset="0%"   stop-color="#fdf6ec"/>
      <stop offset="100%" stop-color="#ede4d4"/>
    </radialGradient>
    <linearGradient id="strokeMain" x1="0%" y1="0%" x2="100%" y2="100%">
      <stop offset="0%"   stop-color="#e8341a"/>
      <stop offset="45%"  stop-color="#c01e0e"/>
      <stop offset="100%" stop-color="#7a0c06"/>
    </linearGradient>
    <linearGradient id="kanjiInk" x1="0%" y1="0%" x2="6%" y2="100%">
      <stop offset="0%"   stop-color="#1c0e0a"/>
      <stop offset="100%" stop-color="#120808"/>
    </linearGradient>
    <linearGradient id="forgeGrad" x1="0%" y1="0%" x2="0%" y2="100%">
      <stop offset="0%"   stop-color="#c8860a"/>
      <stop offset="50%"  stop-color="#a04808"/>
      <stop offset="100%" stop-color="#7a1e06"/>
    </linearGradient>
    <linearGradient id="strokeLight" x1="0%" y1="0%" x2="100%" y2="0%">
      <stop offset="0%"   stop-color="#e8341a" stop-opacity="0.6"/>
      <stop offset="60%"  stop-color="#c01e0e" stop-opacity="0.3"/>
      <stop offset="100%" stop-color="#7a0c06" stop-opacity="0"/>
    </linearGradient>
    <linearGradient id="strokeLight2" x1="100%" y1="0%" x2="0%" y2="0%">
      <stop offset="0%"   stop-color="#e8341a" stop-opacity="0.5"/>
      <stop offset="60%"  stop-color="#c01e0e" stop-opacity="0.25"/>
      <stop offset="100%" stop-color="#7a0c06" stop-opacity="0"/>
    </linearGradient>
    <filter id="kanjiShadow" x="-8%" y="-8%" width="116%" height="116%">
      <feDropShadow dx="3" dy="5" stdDeviation="8" flood-color="#8a1008" flood-opacity="0.18"/>
    </filter>
    <filter id="strokeGlow" x="-15%" y="-60%" width="130%" height="220%">
      <feGaussianBlur in="SourceGraphic" stdDeviation="3.5" result="b"/>
      <feColorMatrix in="b" type="matrix" values="1 0 0 0 .2  0 0 0 0 0  0 0 0 0 0  0 0 0 .5 0" result="g"/>
      <feMerge><feMergeNode in="g"/><feMergeNode in="SourceGraphic"/></feMerge>
    </filter>
    <filter id="paper" x="0%" y="0%" width="100%" height="100%">
      <feTurbulence type="fractalNoise" baseFrequency="0.65" numOctaves="4" stitchTiles="stitch" result="n"/>
      <feColorMatrix in="n" type="saturate" values="0" result="g"/>
      <feBlend in="SourceGraphic" in2="g" mode="multiply" result="o"/>
      <feComposite in="o" in2="SourceGraphic" operator="in"/>
    </filter>
    <filter id="forgeShadow">
      <feDropShadow dx="1" dy="2" stdDeviation="3" flood-color="#7a1e06" flood-opacity="0.25"/>
    </filter>
  </defs>

  <rect width="500" height="580" fill="url(#bgGrad)" rx="20"/>
  <rect width="500" height="580" fill="url(#bgGrad)" rx="20" filter="url(#paper)" opacity="0.45"/>

  <path d="M 30 155 Q 100 85 185 125 Q 270 165 330 108 Q 375 68 440 95"
        fill="none" stroke="url(#strokeLight)" stroke-width="6"
        stroke-linecap="round" filter="url(#strokeGlow)" opacity="0.55"/>
  <path d="M 55 190 Q 115 115 195 152 Q 275 188 340 128 Q 390 82 458 118"
        fill="none" stroke="url(#strokeMain)" stroke-width="22"
        stroke-linecap="round" filter="url(#strokeGlow)"/>
  <path d="M 55 190 Q 115 115 195 152 Q 275 188 340 128 Q 390 82 458 118"
        fill="none" stroke="#ff6040" stroke-width="3"
        stroke-linecap="round" opacity="0.35"/>
  <path d="M 72 210 Q 130 148 202 174 Q 278 202 348 150 Q 398 112 460 140"
        fill="none" stroke="url(#strokeMain)" stroke-width="10"
        stroke-linecap="round" filter="url(#strokeGlow)" opacity="0.55"/>

  <text x="250" y="368" text-anchor="middle" dominant-baseline="auto"
        font-family="'Noto Serif JP','Hiragino Mincho ProN','Yu Mincho','MS Mincho',serif"
        font-size="280" font-weight="900"
        fill="url(#kanjiInk)" filter="url(#kanjiShadow)">漫</text>

  <path d="M 42 428 Q 130 498 242 455 Q 354 412 420 472 Q 448 492 470 468"
        fill="none" stroke="url(#strokeLight2)" stroke-width="7"
        stroke-linecap="round" filter="url(#strokeGlow)" opacity="0.5"/>
  <path d="M 38 408 Q 140 480 255 438 Q 365 396 428 455 Q 452 476 474 452"
        fill="none" stroke="url(#strokeMain)" stroke-width="26"
        stroke-linecap="round" filter="url(#strokeGlow)"/>
  <path d="M 38 408 Q 140 480 255 438 Q 365 396 428 455 Q 452 476 474 452"
        fill="none" stroke="#ff5030" stroke-width="3.5"
        stroke-linecap="round" opacity="0.3"/>
  <path d="M 50 390 Q 148 456 258 420 Q 360 382 422 434 Q 448 454 468 434"
        fill="none" stroke="url(#strokeMain)" stroke-width="11"
        stroke-linecap="round" filter="url(#strokeGlow)" opacity="0.5"/>

  <line x1="100" y1="490" x2="400" y2="490" stroke="#c8a070" stroke-width="0.8" opacity="0.5"/>
  <text x="250" y="540" text-anchor="middle"
        font-family="'Georgia','Times New Roman',serif"
        font-size="52" font-weight="700"
        fill="url(#forgeGrad)" filter="url(#forgeShadow)" letter-spacing="14">FORGE</text>
  <text x="250" y="566" text-anchor="middle"
        font-family="'Courier New',monospace"
        font-size="9.5" fill="#a09080" letter-spacing="5">READ · COLLECT · DISCOVER</text>

  <g stroke="#c8a880" stroke-width="1.2" fill="none" opacity="0.4">
    <polyline points="28,28 28,48 48,48"/>
    <polyline points="472,28 472,48 452,48"/>
    <polyline points="28,552 28,532 48,532"/>
    <polyline points="472,552 472,532 452,532"/>
  </g>
</svg>
